<mxfile host="65bd71144e">
    <diagram id="RL0nU6kSSy2ttf3N9WEb" name="Seite-1">
        <mxGraphModel dx="2348" dy="1231" grid="1" gridSize="10" guides="1" tooltips="1" connect="1" arrows="1" fold="1" page="1" pageScale="1" pageWidth="2336" pageHeight="1654" math="0" shadow="0">
            <root>
                <mxCell id="0"/>
                <mxCell id="1" parent="0"/>
                <mxCell id="102" style="edgeStyle=none;html=1;fontSize=34;endArrow=none;endFill=0;" edge="1" parent="1" source="2" target="98">
                    <mxGeometry relative="1" as="geometry"/>
                </mxCell>
                <mxCell id="2" value="Community" style="ellipse;whiteSpace=wrap;html=1;fillColor=#d5e8d4;gradientColor=#97d077;strokeColor=#82b366;fontSize=17;fontStyle=1" vertex="1" parent="1">
                    <mxGeometry x="720" y="320" width="120" height="80" as="geometry"/>
                </mxCell>
                <mxCell id="99" style="edgeStyle=none;html=1;fontSize=34;endArrow=none;endFill=0;" edge="1" parent="1" source="3" target="98">
                    <mxGeometry relative="1" as="geometry"/>
                </mxCell>
                <mxCell id="3" value="User" style="ellipse;whiteSpace=wrap;html=1;fillColor=#fff2cc;gradientColor=#ffd966;strokeColor=#d6b656;fontSize=17;fontStyle=1" vertex="1" parent="1">
                    <mxGeometry x="1360" y="800" width="120" height="80" as="geometry"/>
                </mxCell>
                <mxCell id="100" style="edgeStyle=none;html=1;fontSize=34;endArrow=none;endFill=0;" edge="1" parent="1" source="4" target="98">
                    <mxGeometry relative="1" as="geometry"/>
                </mxCell>
                <mxCell id="4" value="Rollen &amp;amp; Rechte" style="ellipse;whiteSpace=wrap;html=1;fillColor=#e6d0de;gradientColor=#d5739d;strokeColor=#996185;fontSize=17;fontStyle=1" vertex="1" parent="1">
                    <mxGeometry x="920" y="920" width="120" height="80" as="geometry"/>
                </mxCell>
                <mxCell id="28" style="edgeStyle=none;html=1;fontSize=14;endArrow=none;endFill=0;" edge="1" parent="1" source="5" target="23">
                    <mxGeometry relative="1" as="geometry"/>
                </mxCell>
                <mxCell id="103" style="edgeStyle=none;html=1;fontSize=34;endArrow=none;endFill=0;" edge="1" parent="1" source="5" target="98">
                    <mxGeometry relative="1" as="geometry"/>
                </mxCell>
                <mxCell id="5" value="Konto" style="ellipse;whiteSpace=wrap;html=1;fillColor=#dae8fc;gradientColor=#7ea6e0;strokeColor=#6c8ebf;fontSize=17;fontStyle=1" vertex="1" parent="1">
                    <mxGeometry x="1200" y="358.29" width="120" height="80" as="geometry"/>
                </mxCell>
                <mxCell id="101" style="edgeStyle=none;html=1;fontSize=34;endArrow=none;endFill=0;" edge="1" parent="1" source="6" target="98">
                    <mxGeometry relative="1" as="geometry"/>
                </mxCell>
                <mxCell id="6" value="Contributions" style="ellipse;whiteSpace=wrap;html=1;fillColor=#ffcd28;gradientColor=#ffa500;strokeColor=#d79b00;fontSize=17;fontStyle=1" vertex="1" parent="1">
                    <mxGeometry x="640" y="720" width="120" height="80" as="geometry"/>
                </mxCell>
                <mxCell id="8" style="edgeStyle=none;html=1;fontSize=15;endArrow=none;endFill=0;" edge="1" parent="1" source="7" target="5">
                    <mxGeometry relative="1" as="geometry">
                        <mxPoint x="1642.6305768491611" y="320.00417540776294" as="sourcePoint"/>
                    </mxGeometry>
                </mxCell>
                <mxCell id="96" style="edgeStyle=none;html=1;fontSize=14;endArrow=none;endFill=0;" edge="1" parent="1" source="7" target="92">
                    <mxGeometry relative="1" as="geometry"/>
                </mxCell>
                <mxCell id="7" value="Transaktionen" style="ellipse;whiteSpace=wrap;html=1;fillColor=#dae8fc;gradientColor=#7ea6e0;strokeColor=#6c8ebf;fontSize=14;fontStyle=1" vertex="1" parent="1">
                    <mxGeometry x="1560" y="320" width="120" height="80" as="geometry"/>
                </mxCell>
                <mxCell id="10" style="edgeStyle=none;html=1;fontSize=14;endArrow=none;endFill=0;" edge="1" parent="1" source="9" target="2">
                    <mxGeometry relative="1" as="geometry"/>
                </mxCell>
                <mxCell id="9" value="Federation" style="ellipse;whiteSpace=wrap;html=1;fillColor=#d5e8d4;gradientColor=#97d077;strokeColor=#82b366;fontSize=14;fontStyle=1" vertex="1" parent="1">
                    <mxGeometry x="460" y="270" width="120" height="40" as="geometry"/>
                </mxCell>
                <mxCell id="19" style="edgeStyle=none;html=1;fontSize=14;endArrow=none;endFill=0;" edge="1" parent="1" source="11" target="3">
                    <mxGeometry relative="1" as="geometry"/>
                </mxCell>
                <mxCell id="11" value="Register" style="ellipse;whiteSpace=wrap;html=1;fillColor=#fff2cc;gradientColor=#ffd966;strokeColor=#d6b656;fontSize=14;fontStyle=1" vertex="1" parent="1">
                    <mxGeometry x="1720" y="850" width="120" height="40" as="geometry"/>
                </mxCell>
                <mxCell id="12" value="Login" style="ellipse;whiteSpace=wrap;html=1;fillColor=#fff2cc;gradientColor=#ffd966;strokeColor=#d6b656;fontSize=14;fontStyle=1" vertex="1" parent="1">
                    <mxGeometry x="1720" y="890" width="120" height="40" as="geometry"/>
                </mxCell>
                <mxCell id="18" style="edgeStyle=none;html=1;entryX=0;entryY=0.5;entryDx=0;entryDy=0;fontSize=14;endArrow=none;endFill=0;" edge="1" parent="1" source="13" target="14">
                    <mxGeometry relative="1" as="geometry"/>
                </mxCell>
                <mxCell id="13" value="Profile" style="ellipse;whiteSpace=wrap;html=1;fillColor=#fff2cc;gradientColor=#ffd966;strokeColor=#d6b656;fontSize=14;fontStyle=1" vertex="1" parent="1">
                    <mxGeometry x="1720" y="930" width="120" height="40" as="geometry"/>
                </mxCell>
                <mxCell id="14" value="Passwort" style="ellipse;whiteSpace=wrap;html=1;fillColor=#fff2cc;gradientColor=#ffd966;strokeColor=#d6b656;fontSize=14;fontStyle=1" vertex="1" parent="1">
                    <mxGeometry x="1880" y="930" width="120" height="40" as="geometry"/>
                </mxCell>
                <mxCell id="15" value="Email" style="ellipse;whiteSpace=wrap;html=1;fillColor=#fff2cc;gradientColor=#ffd966;strokeColor=#d6b656;fontSize=14;fontStyle=1" vertex="1" parent="1">
                    <mxGeometry x="1880" y="970" width="120" height="40" as="geometry"/>
                </mxCell>
                <mxCell id="16" value="Alias" style="ellipse;whiteSpace=wrap;html=1;fillColor=#fff2cc;gradientColor=#ffd966;strokeColor=#d6b656;fontSize=14;fontStyle=1" vertex="1" parent="1">
                    <mxGeometry x="1880" y="1010" width="120" height="40" as="geometry"/>
                </mxCell>
                <mxCell id="17" value="Sonstiges" style="ellipse;whiteSpace=wrap;html=1;fillColor=#fff2cc;gradientColor=#ffd966;strokeColor=#d6b656;fontSize=14;fontStyle=1" vertex="1" parent="1">
                    <mxGeometry x="1880" y="1050" width="120" height="40" as="geometry"/>
                </mxCell>
                <mxCell id="20" value="Umzug" style="ellipse;whiteSpace=wrap;html=1;fillColor=#fff2cc;gradientColor=#ffd966;strokeColor=#d6b656;fontSize=14;fontStyle=1" vertex="1" parent="1">
                    <mxGeometry x="1720" y="970" width="120" height="40" as="geometry"/>
                </mxCell>
                <mxCell id="21" value="DSGVO" style="ellipse;whiteSpace=wrap;html=1;fillColor=#fff2cc;gradientColor=#ffd966;strokeColor=#d6b656;fontSize=14;fontStyle=1" vertex="1" parent="1">
                    <mxGeometry x="1720" y="1010" width="120" height="40" as="geometry"/>
                </mxCell>
                <mxCell id="22" value="Löschen" style="ellipse;whiteSpace=wrap;html=1;fillColor=#fff2cc;gradientColor=#ffd966;strokeColor=#d6b656;fontSize=14;fontStyle=1" vertex="1" parent="1">
                    <mxGeometry x="1720" y="1050" width="120" height="40" as="geometry"/>
                </mxCell>
                <mxCell id="30" style="edgeStyle=none;html=1;entryX=1;entryY=0.5;entryDx=0;entryDy=0;fontSize=14;endArrow=none;endFill=0;" edge="1" parent="1" source="23" target="29">
                    <mxGeometry relative="1" as="geometry"/>
                </mxCell>
                <mxCell id="23" value="Anlegen" style="ellipse;whiteSpace=wrap;html=1;fillColor=#dae8fc;gradientColor=#7ea6e0;strokeColor=#6c8ebf;fontSize=14;fontStyle=1" vertex="1" parent="1">
                    <mxGeometry x="1360" y="480" width="120" height="40" as="geometry"/>
                </mxCell>
                <mxCell id="24" value="Anzeigen" style="ellipse;whiteSpace=wrap;html=1;fillColor=#dae8fc;gradientColor=#7ea6e0;strokeColor=#6c8ebf;fontSize=14;fontStyle=1" vertex="1" parent="1">
                    <mxGeometry x="1360" y="520" width="120" height="40" as="geometry"/>
                </mxCell>
                <mxCell id="25" value="Kontoauszug" style="ellipse;whiteSpace=wrap;html=1;fillColor=#dae8fc;gradientColor=#7ea6e0;strokeColor=#6c8ebf;fontSize=14;fontStyle=1" vertex="1" parent="1">
                    <mxGeometry x="1360" y="640" width="120" height="40" as="geometry"/>
                </mxCell>
                <mxCell id="26" value="Umzug" style="ellipse;whiteSpace=wrap;html=1;fillColor=#dae8fc;gradientColor=#7ea6e0;strokeColor=#6c8ebf;fontSize=14;fontStyle=1" vertex="1" parent="1">
                    <mxGeometry x="1360" y="560" width="120" height="40" as="geometry"/>
                </mxCell>
                <mxCell id="27" value="Löschen" style="ellipse;whiteSpace=wrap;html=1;fillColor=#dae8fc;gradientColor=#7ea6e0;strokeColor=#6c8ebf;fontSize=14;fontStyle=1" vertex="1" parent="1">
                    <mxGeometry x="1360" y="600" width="120" height="40" as="geometry"/>
                </mxCell>
                <mxCell id="29" value="Standard" style="ellipse;whiteSpace=wrap;html=1;fillColor=#dae8fc;gradientColor=#7ea6e0;strokeColor=#6c8ebf;fontSize=14;fontStyle=1" vertex="1" parent="1">
                    <mxGeometry x="1520" y="480" width="120" height="40" as="geometry"/>
                </mxCell>
                <mxCell id="31" value="AUF" style="ellipse;whiteSpace=wrap;html=1;fillColor=#dae8fc;gradientColor=#7ea6e0;strokeColor=#6c8ebf;fontSize=14;fontStyle=1" vertex="1" parent="1">
                    <mxGeometry x="1520" y="520" width="120" height="40" as="geometry"/>
                </mxCell>
                <mxCell id="32" value="Gemeinwohl" style="ellipse;whiteSpace=wrap;html=1;fillColor=#dae8fc;gradientColor=#7ea6e0;strokeColor=#6c8ebf;fontSize=14;fontStyle=1" vertex="1" parent="1">
                    <mxGeometry x="1520" y="560" width="120" height="40" as="geometry"/>
                </mxCell>
                <mxCell id="34" style="edgeStyle=none;html=1;entryX=1;entryY=0.5;entryDx=0;entryDy=0;fontSize=14;endArrow=none;endFill=0;exitX=0;exitY=0.5;exitDx=0;exitDy=0;" edge="1" parent="1" source="36" target="7">
                    <mxGeometry relative="1" as="geometry"/>
                </mxCell>
                <mxCell id="33" value="senden" style="ellipse;whiteSpace=wrap;html=1;fillColor=#dae8fc;gradientColor=#7ea6e0;strokeColor=#6c8ebf;fontSize=14;fontStyle=1" vertex="1" parent="1">
                    <mxGeometry x="1750" y="380" width="120" height="40" as="geometry"/>
                </mxCell>
                <mxCell id="85" style="edgeStyle=none;html=1;entryX=0.5;entryY=0;entryDx=0;entryDy=0;fontSize=14;endArrow=none;endFill=0;" edge="1" parent="1" source="35" target="83">
                    <mxGeometry relative="1" as="geometry"/>
                </mxCell>
                <mxCell id="35" value="empfangen" style="ellipse;whiteSpace=wrap;html=1;fillColor=#dae8fc;gradientColor=#7ea6e0;strokeColor=#6c8ebf;fontSize=14;fontStyle=1" vertex="1" parent="1">
                    <mxGeometry x="1750" y="420" width="120" height="40" as="geometry"/>
                </mxCell>
                <mxCell id="36" value="schöpfen" style="ellipse;whiteSpace=wrap;html=1;fillColor=#dae8fc;gradientColor=#7ea6e0;strokeColor=#6c8ebf;fontSize=14;fontStyle=1" vertex="1" parent="1">
                    <mxGeometry x="1750" y="340" width="120" height="40" as="geometry"/>
                </mxCell>
                <mxCell id="44" style="edgeStyle=none;html=1;fontSize=14;endArrow=none;endFill=0;" edge="1" parent="1" source="37" target="4">
                    <mxGeometry relative="1" as="geometry"/>
                </mxCell>
                <mxCell id="46" style="edgeStyle=none;html=1;fontSize=14;endArrow=none;endFill=0;" edge="1" parent="1" source="37" target="39">
                    <mxGeometry relative="1" as="geometry"/>
                </mxCell>
                <mxCell id="37" value="Rolle" style="ellipse;whiteSpace=wrap;html=1;fillColor=#e6d0de;gradientColor=#d5739d;strokeColor=#996185;fontSize=14;fontStyle=1" vertex="1" parent="1">
                    <mxGeometry x="1080" y="1000" width="120" height="40" as="geometry"/>
                </mxCell>
                <mxCell id="45" style="edgeStyle=none;html=1;fontSize=14;endArrow=none;endFill=0;" edge="1" parent="1" source="38" target="4">
                    <mxGeometry relative="1" as="geometry"/>
                </mxCell>
                <mxCell id="38" value="Recht" style="ellipse;whiteSpace=wrap;html=1;fillColor=#e6d0de;gradientColor=#d5739d;strokeColor=#996185;fontSize=14;fontStyle=1" vertex="1" parent="1">
                    <mxGeometry x="820" y="1030" width="120" height="40" as="geometry"/>
                </mxCell>
                <mxCell id="39" value="User" style="ellipse;whiteSpace=wrap;html=1;fillColor=#e6d0de;gradientColor=#d5739d;strokeColor=#996185;fontSize=14;fontStyle=1" vertex="1" parent="1">
                    <mxGeometry x="1220" y="1060" width="120" height="40" as="geometry"/>
                </mxCell>
                <mxCell id="47" style="edgeStyle=none;html=1;fontSize=14;endArrow=none;endFill=0;" edge="1" parent="1" source="40" target="41">
                    <mxGeometry relative="1" as="geometry"/>
                </mxCell>
                <mxCell id="40" value="Admin" style="ellipse;whiteSpace=wrap;html=1;fillColor=#e6d0de;gradientColor=#d5739d;strokeColor=#996185;fontSize=14;fontStyle=1" vertex="1" parent="1">
                    <mxGeometry x="1220" y="1100" width="120" height="40" as="geometry"/>
                </mxCell>
                <mxCell id="41" value="SuperUser" style="ellipse;whiteSpace=wrap;html=1;fillColor=#e6d0de;gradientColor=#d5739d;strokeColor=#996185;fontSize=14;fontStyle=1" vertex="1" parent="1">
                    <mxGeometry x="1500" y="1140" width="120" height="40" as="geometry"/>
                </mxCell>
                <mxCell id="42" value="Support" style="ellipse;whiteSpace=wrap;html=1;fillColor=#e6d0de;gradientColor=#d5739d;strokeColor=#996185;fontSize=14;fontStyle=1" vertex="1" parent="1">
                    <mxGeometry x="1220" y="1140" width="120" height="40" as="geometry"/>
                </mxCell>
                <mxCell id="43" value="AUF-Admin" style="ellipse;whiteSpace=wrap;html=1;fillColor=#e6d0de;gradientColor=#d5739d;strokeColor=#996185;fontSize=14;fontStyle=1" vertex="1" parent="1">
                    <mxGeometry x="1500" y="1180" width="120" height="40" as="geometry"/>
                </mxCell>
                <mxCell id="48" value="Gemeinwohl-Admin" style="ellipse;whiteSpace=wrap;html=1;fillColor=#e6d0de;gradientColor=#d5739d;strokeColor=#996185;fontSize=14;fontStyle=1" vertex="1" parent="1">
                    <mxGeometry x="1500" y="1220" width="120" height="40" as="geometry"/>
                </mxCell>
                <mxCell id="49" value="Contribution-Admin" style="ellipse;whiteSpace=wrap;html=1;fillColor=#e6d0de;gradientColor=#d5739d;strokeColor=#996185;fontSize=14;fontStyle=1" vertex="1" parent="1">
                    <mxGeometry x="1500" y="1260" width="120" height="40" as="geometry"/>
                </mxCell>
                <mxCell id="50" value="Federation-Admin" style="ellipse;whiteSpace=wrap;html=1;fillColor=#e6d0de;gradientColor=#d5739d;strokeColor=#996185;fontSize=14;fontStyle=1" vertex="1" parent="1">
                    <mxGeometry x="1500" y="1300" width="120" height="40" as="geometry"/>
                </mxCell>
                <mxCell id="51" value="Backup-Admin" style="ellipse;whiteSpace=wrap;html=1;fillColor=#e6d0de;gradientColor=#d5739d;strokeColor=#996185;fontSize=14;fontStyle=1" vertex="1" parent="1">
                    <mxGeometry x="1500" y="1340" width="120" height="40" as="geometry"/>
                </mxCell>
                <mxCell id="57" style="edgeStyle=none;html=1;fontSize=14;endArrow=none;endFill=0;" edge="1" parent="1" source="52" target="42">
                    <mxGeometry relative="1" as="geometry"/>
                </mxCell>
                <mxCell id="52" value="Helpdesk" style="ellipse;whiteSpace=wrap;html=1;fillColor=#e6d0de;gradientColor=#d5739d;strokeColor=#996185;fontSize=14;fontStyle=1" vertex="1" parent="1">
                    <mxGeometry x="1360" y="1180" width="120" height="40" as="geometry"/>
                </mxCell>
                <mxCell id="53" value="Transaction" style="ellipse;whiteSpace=wrap;html=1;fillColor=#e6d0de;gradientColor=#d5739d;strokeColor=#996185;fontSize=14;fontStyle=1" vertex="1" parent="1">
                    <mxGeometry x="1360" y="1220" width="120" height="40" as="geometry"/>
                </mxCell>
                <mxCell id="54" value="Contribution" style="ellipse;whiteSpace=wrap;html=1;fillColor=#e6d0de;gradientColor=#d5739d;strokeColor=#996185;fontSize=14;fontStyle=1" vertex="1" parent="1">
                    <mxGeometry x="1360" y="1260" width="120" height="40" as="geometry"/>
                </mxCell>
                <mxCell id="55" value="Community" style="ellipse;whiteSpace=wrap;html=1;fillColor=#e6d0de;gradientColor=#d5739d;strokeColor=#996185;fontSize=14;fontStyle=1" vertex="1" parent="1">
                    <mxGeometry x="1360" y="1300" width="120" height="40" as="geometry"/>
                </mxCell>
                <mxCell id="56" value="User" style="ellipse;whiteSpace=wrap;html=1;fillColor=#e6d0de;gradientColor=#d5739d;strokeColor=#996185;fontSize=14;fontStyle=1" vertex="1" parent="1">
                    <mxGeometry x="1360" y="1340" width="120" height="40" as="geometry"/>
                </mxCell>
                <mxCell id="64" style="edgeStyle=none;html=1;entryX=0;entryY=0.5;entryDx=0;entryDy=0;fontSize=14;endArrow=none;endFill=0;" edge="1" parent="1" source="58" target="6">
                    <mxGeometry relative="1" as="geometry"/>
                </mxCell>
                <mxCell id="58" value="anlegen" style="ellipse;whiteSpace=wrap;html=1;fillColor=#ffcd28;gradientColor=#ffa500;strokeColor=#d79b00;fontSize=14;fontStyle=1" vertex="1" parent="1">
                    <mxGeometry x="380" y="830" width="120" height="40" as="geometry"/>
                </mxCell>
                <mxCell id="59" value="löschen" style="ellipse;whiteSpace=wrap;html=1;fillColor=#ffcd28;gradientColor=#ffa500;strokeColor=#d79b00;fontSize=14;fontStyle=1" vertex="1" parent="1">
                    <mxGeometry x="380" y="870" width="120" height="40" as="geometry"/>
                </mxCell>
                <mxCell id="60" value="bearbeiten" style="ellipse;whiteSpace=wrap;html=1;fillColor=#ffcd28;gradientColor=#ffa500;strokeColor=#d79b00;fontSize=14;fontStyle=1" vertex="1" parent="1">
                    <mxGeometry x="380" y="910" width="120" height="40" as="geometry"/>
                </mxCell>
                <mxCell id="61" value="kategorisieren" style="ellipse;whiteSpace=wrap;html=1;fillColor=#ffcd28;gradientColor=#ffa500;strokeColor=#d79b00;fontSize=14;fontStyle=1" vertex="1" parent="1">
                    <mxGeometry x="380" y="950" width="120" height="40" as="geometry"/>
                </mxCell>
                <mxCell id="62" value="auswerten" style="ellipse;whiteSpace=wrap;html=1;fillColor=#ffcd28;gradientColor=#ffa500;strokeColor=#d79b00;fontSize=14;fontStyle=1" vertex="1" parent="1">
                    <mxGeometry x="380" y="990" width="120" height="40" as="geometry"/>
                </mxCell>
                <mxCell id="63" value="bestätigen" style="ellipse;whiteSpace=wrap;html=1;fillColor=#ffcd28;gradientColor=#ffa500;strokeColor=#d79b00;fontSize=14;fontStyle=1" vertex="1" parent="1">
                    <mxGeometry x="380" y="1030" width="120" height="40" as="geometry"/>
                </mxCell>
                <mxCell id="72" style="edgeStyle=none;html=1;entryX=0;entryY=0.5;entryDx=0;entryDy=0;fontSize=14;endArrow=none;endFill=0;" edge="1" parent="1" source="65" target="66">
                    <mxGeometry relative="1" as="geometry"/>
                </mxCell>
                <mxCell id="65" value="Verwaltung" style="ellipse;whiteSpace=wrap;html=1;fillColor=#d5e8d4;gradientColor=#97d077;strokeColor=#82b366;fontSize=14;fontStyle=1" vertex="1" parent="1">
                    <mxGeometry x="460" y="310" width="120" height="40" as="geometry"/>
                </mxCell>
                <mxCell id="66" value="Community intern" style="ellipse;whiteSpace=wrap;html=1;fillColor=#d5e8d4;gradientColor=#97d077;strokeColor=#82b366;fontSize=14;fontStyle=1" vertex="1" parent="1">
                    <mxGeometry x="280" y="310" width="120" height="40" as="geometry"/>
                </mxCell>
                <mxCell id="67" value="Community extern" style="ellipse;whiteSpace=wrap;html=1;fillColor=#d5e8d4;gradientColor=#97d077;strokeColor=#82b366;fontSize=14;fontStyle=1" vertex="1" parent="1">
                    <mxGeometry x="280" y="350" width="120" height="40" as="geometry"/>
                </mxCell>
                <mxCell id="68" value="User" style="ellipse;whiteSpace=wrap;html=1;fillColor=#d5e8d4;gradientColor=#97d077;strokeColor=#82b366;fontSize=14;fontStyle=1" vertex="1" parent="1">
                    <mxGeometry x="280" y="390" width="120" height="40" as="geometry"/>
                </mxCell>
                <mxCell id="69" value="Contribution" style="ellipse;whiteSpace=wrap;html=1;fillColor=#d5e8d4;gradientColor=#97d077;strokeColor=#82b366;fontSize=14;fontStyle=1" vertex="1" parent="1">
                    <mxGeometry x="280" y="430" width="120" height="40" as="geometry"/>
                </mxCell>
                <mxCell id="70" value="Rollen&amp;amp;Rechte" style="ellipse;whiteSpace=wrap;html=1;fillColor=#d5e8d4;gradientColor=#97d077;strokeColor=#82b366;fontSize=14;fontStyle=1" vertex="1" parent="1">
                    <mxGeometry x="280" y="470" width="120" height="40" as="geometry"/>
                </mxCell>
                <mxCell id="71" value="Konten" style="ellipse;whiteSpace=wrap;html=1;fillColor=#d5e8d4;gradientColor=#97d077;strokeColor=#82b366;fontSize=14;fontStyle=1" vertex="1" parent="1">
                    <mxGeometry x="280" y="510" width="120" height="40" as="geometry"/>
                </mxCell>
                <mxCell id="73" value="Backup-Provider" style="ellipse;whiteSpace=wrap;html=1;fillColor=#d5e8d4;gradientColor=#97d077;strokeColor=#82b366;fontSize=14;fontStyle=1" vertex="1" parent="1">
                    <mxGeometry x="460" y="350" width="120" height="40" as="geometry"/>
                </mxCell>
                <mxCell id="78" style="edgeStyle=none;html=1;entryX=0.5;entryY=1;entryDx=0;entryDy=0;fontSize=14;endArrow=none;endFill=0;" edge="1" parent="1" source="74" target="73">
                    <mxGeometry relative="1" as="geometry"/>
                </mxCell>
                <mxCell id="74" value="Community&lt;br&gt;intern" style="ellipse;whiteSpace=wrap;html=1;fillColor=#d5e8d4;gradientColor=#97d077;strokeColor=#82b366;fontSize=14;fontStyle=1" vertex="1" parent="1">
                    <mxGeometry x="520" y="460" width="120" height="40" as="geometry"/>
                </mxCell>
                <mxCell id="75" value="User" style="ellipse;whiteSpace=wrap;html=1;fillColor=#d5e8d4;gradientColor=#97d077;strokeColor=#82b366;fontSize=14;fontStyle=1" vertex="1" parent="1">
                    <mxGeometry x="520" y="500" width="120" height="40" as="geometry"/>
                </mxCell>
                <mxCell id="76" value="Contribution" style="ellipse;whiteSpace=wrap;html=1;fillColor=#d5e8d4;gradientColor=#97d077;strokeColor=#82b366;fontSize=14;fontStyle=1" vertex="1" parent="1">
                    <mxGeometry x="520" y="540" width="120" height="40" as="geometry"/>
                </mxCell>
                <mxCell id="77" value="Konto" style="ellipse;whiteSpace=wrap;html=1;fillColor=#d5e8d4;gradientColor=#97d077;strokeColor=#82b366;fontSize=14;fontStyle=1" vertex="1" parent="1">
                    <mxGeometry x="520" y="580" width="120" height="40" as="geometry"/>
                </mxCell>
                <mxCell id="82" style="edgeStyle=none;html=1;entryX=1;entryY=0.5;entryDx=0;entryDy=0;fontSize=14;endArrow=none;endFill=0;" edge="1" parent="1" source="79" target="33">
                    <mxGeometry relative="1" as="geometry"/>
                </mxCell>
                <mxCell id="79" value="online" style="ellipse;whiteSpace=wrap;html=1;fillColor=#dae8fc;gradientColor=#7ea6e0;strokeColor=#6c8ebf;fontSize=14;fontStyle=1" vertex="1" parent="1">
                    <mxGeometry x="1920" y="380" width="120" height="40" as="geometry"/>
                </mxCell>
                <mxCell id="80" value="per Link" style="ellipse;whiteSpace=wrap;html=1;fillColor=#dae8fc;gradientColor=#7ea6e0;strokeColor=#6c8ebf;fontSize=14;fontStyle=1" vertex="1" parent="1">
                    <mxGeometry x="1920" y="420" width="120" height="40" as="geometry"/>
                </mxCell>
                <mxCell id="81" value="per QR-Code" style="ellipse;whiteSpace=wrap;html=1;fillColor=#dae8fc;gradientColor=#7ea6e0;strokeColor=#6c8ebf;fontSize=14;fontStyle=1" vertex="1" parent="1">
                    <mxGeometry x="1920" y="460" width="120" height="40" as="geometry"/>
                </mxCell>
                <mxCell id="83" value="online" style="ellipse;whiteSpace=wrap;html=1;fillColor=#dae8fc;gradientColor=#7ea6e0;strokeColor=#6c8ebf;fontSize=14;fontStyle=1" vertex="1" parent="1">
                    <mxGeometry x="1750" y="490" width="120" height="40" as="geometry"/>
                </mxCell>
                <mxCell id="84" value="redeem" style="ellipse;whiteSpace=wrap;html=1;fillColor=#dae8fc;gradientColor=#7ea6e0;strokeColor=#6c8ebf;fontSize=14;fontStyle=1" vertex="1" parent="1">
                    <mxGeometry x="1750" y="530" width="120" height="40" as="geometry"/>
                </mxCell>
                <mxCell id="86" value="Auswertung&lt;span style=&quot;color: rgba(0 , 0 , 0 , 0) ; font-family: monospace ; font-size: 0px ; font-weight: 400&quot;&gt;%3CmxGraphModel%3E%3Croot%3E%3CmxCell%20id%3D%220%22%2F%3E%3CmxCell%20id%3D%221%22%20parent%3D%220%22%2F%3E%3CmxCell%20id%3D%222%22%20value%3D%22Verwaltung%22%20style%3D%22ellipse%3BwhiteSpace%3Dwrap%3Bhtml%3D1%3BfillColor%3D%23d5e8d4%3BgradientColor%3D%2397d077%3BstrokeColor%3D%2382b366%3BfontSize%3D14%3BfontStyle%3D1%22%20vertex%3D%221%22%20parent%3D%221%22%3E%3CmxGeometry%20x%3D%221000%22%20y%3D%22300%22%20width%3D%22120%22%20height%3D%2240%22%20as%3D%22geometry%22%2F%3E%3C%2FmxCell%3E%3C%2Froot%3E%3C%2FmxGraphModel%3E&lt;/span&gt;" style="ellipse;whiteSpace=wrap;html=1;fillColor=#d5e8d4;gradientColor=#97d077;strokeColor=#82b366;fontSize=14;fontStyle=1" vertex="1" parent="1">
                    <mxGeometry x="460" y="390" width="120" height="40" as="geometry"/>
                </mxCell>
                <mxCell id="88" value="Community&lt;br&gt;extern" style="ellipse;whiteSpace=wrap;html=1;fillColor=#d5e8d4;gradientColor=#97d077;strokeColor=#82b366;fontSize=14;fontStyle=1" vertex="1" parent="1">
                    <mxGeometry x="520" y="500" width="120" height="40" as="geometry"/>
                </mxCell>
                <mxCell id="89" value="User" style="ellipse;whiteSpace=wrap;html=1;fillColor=#d5e8d4;gradientColor=#97d077;strokeColor=#82b366;fontSize=14;fontStyle=1" vertex="1" parent="1">
                    <mxGeometry x="520" y="540" width="120" height="40" as="geometry"/>
                </mxCell>
                <mxCell id="90" value="Contribution" style="ellipse;whiteSpace=wrap;html=1;fillColor=#d5e8d4;gradientColor=#97d077;strokeColor=#82b366;fontSize=14;fontStyle=1" vertex="1" parent="1">
                    <mxGeometry x="520" y="580" width="120" height="40" as="geometry"/>
                </mxCell>
                <mxCell id="91" value="Konto" style="ellipse;whiteSpace=wrap;html=1;fillColor=#d5e8d4;gradientColor=#97d077;strokeColor=#82b366;fontSize=14;fontStyle=1" vertex="1" parent="1">
                    <mxGeometry x="520" y="620" width="120" height="40" as="geometry"/>
                </mxCell>
                <mxCell id="92" value="Blockchain" style="ellipse;whiteSpace=wrap;html=1;fillColor=#f5f5f5;gradientColor=#b3b3b3;strokeColor=#666666;fontSize=14;fontStyle=1" vertex="1" parent="1">
                    <mxGeometry x="1560" y="140" width="120" height="80" as="geometry"/>
                </mxCell>
                <mxCell id="93" value="senden" style="ellipse;whiteSpace=wrap;html=1;fillColor=#f5f5f5;gradientColor=#b3b3b3;strokeColor=#666666;fontSize=14;fontStyle=1" vertex="1" parent="1">
                    <mxGeometry x="1760" y="200" width="120" height="40" as="geometry"/>
                </mxCell>
                <mxCell id="94" value="empfangen" style="ellipse;whiteSpace=wrap;html=1;fillColor=#f5f5f5;gradientColor=#b3b3b3;strokeColor=#666666;fontSize=14;fontStyle=1" vertex="1" parent="1">
                    <mxGeometry x="1760" y="240" width="120" height="40" as="geometry"/>
                </mxCell>
                <mxCell id="97" style="edgeStyle=none;html=1;fontSize=14;endArrow=none;endFill=0;" edge="1" parent="1" source="95" target="92">
                    <mxGeometry relative="1" as="geometry"/>
                </mxCell>
                <mxCell id="95" value="schöpfen" style="ellipse;whiteSpace=wrap;html=1;fillColor=#f5f5f5;gradientColor=#b3b3b3;strokeColor=#666666;fontSize=14;fontStyle=1" vertex="1" parent="1">
                    <mxGeometry x="1760" y="160" width="120" height="40" as="geometry"/>
                </mxCell>
                <mxCell id="98" value="G R A D I D O" style="ellipse;whiteSpace=wrap;html=1;fillColor=#ffcd28;gradientColor=#ffa500;strokeColor=#BD8800;fontSize=34;fontStyle=1;gradientDirection=radial;" vertex="1" parent="1">
                    <mxGeometry x="880" y="480" width="320" height="320" as="geometry"/>
                </mxCell>
                <mxCell id="105" style="edgeStyle=none;html=1;fontSize=34;endArrow=none;endFill=0;" edge="1" parent="1" source="104" target="25">
                    <mxGeometry relative="1" as="geometry"/>
                </mxCell>
                <mxCell id="104" value="Kassenbuch" style="ellipse;whiteSpace=wrap;html=1;fillColor=#dae8fc;gradientColor=#7ea6e0;strokeColor=#6c8ebf;fontSize=14;fontStyle=1" vertex="1" parent="1">
                    <mxGeometry x="1520" y="690" width="120" height="40" as="geometry"/>
                </mxCell>
                <mxCell id="107" style="edgeStyle=none;html=1;fontSize=34;endArrow=none;endFill=0;" edge="1" parent="1" source="106" target="92">
                    <mxGeometry relative="1" as="geometry"/>
                </mxCell>
                <mxCell id="106" value="Kassenbuch" style="ellipse;whiteSpace=wrap;html=1;fillColor=#f5f5f5;gradientColor=#b3b3b3;strokeColor=#666666;fontSize=14;fontStyle=1" vertex="1" parent="1">
                    <mxGeometry x="1420" y="230" width="120" height="40" as="geometry"/>
                </mxCell>
            </root>
        </mxGraphModel>
    </diagram>
</mxfile>